<svg width="26" height="26" viewBox="0 0 26 26" fill="none" xmlns="http://www.w3.org/2000/svg">
<g clip-path="url(#clip0_380_53)">
<path d="M9.81094 0.293054C7.29219 0.910554 4.57844 2.6493 2.85594 4.7618C1.78344 6.0618 0.613438 8.45055 0.255938 10.043C-0.0853126 11.5868 -0.0853126 14.3818 0.255938 15.9255C0.710938 17.9893 2.22219 20.7355 3.73344 22.2468C5.24469 23.758 7.99094 25.2693 10.0547 25.7243C10.7372 25.8705 11.9884 25.9843 12.9959 25.9843C15.2384 25.9843 16.7497 25.643 18.6347 24.733C21.5434 23.3355 23.3472 21.5318 24.7447 18.623C25.6547 16.738 25.9959 15.2268 25.9959 12.9843C25.9959 11.9768 25.8822 10.7255 25.7359 10.043C25.2809 7.9793 23.7697 5.23305 22.2584 3.7218C20.7472 2.21055 18.0009 0.699304 15.9372 0.244304C14.3609 -0.096946 11.3547 -0.080696 9.81094 0.293054ZM12.1997 5.3793C12.3459 5.49305 12.5734 5.78555 12.7197 6.0293C13.0772 6.6143 13.1909 6.59805 13.5484 5.91555C14.0197 5.03805 14.9947 4.94055 15.2059 5.75305C15.3034 6.1268 14.7184 7.4593 14.4259 7.5893C14.3447 7.6218 14.2959 7.7193 14.2959 7.80055C14.2959 7.8818 13.5322 9.23055 12.5897 10.8068C11.6472 12.3668 10.8834 13.7643 10.8834 13.8943C10.8834 14.073 11.2409 14.1218 12.8009 14.1218C13.8409 14.1218 14.7834 14.1868 14.8809 14.2518C15.1734 14.463 15.5959 15.1618 15.5959 15.4543C15.5959 15.7305 15.2872 15.7468 10.6722 15.7468C5.17969 15.7468 5.13094 15.7305 5.22844 14.7718L5.27719 14.203L7.04844 14.1218L8.80344 14.0405L9.16094 13.3905C9.33969 13.033 9.55094 12.7243 9.63219 12.6918C9.69719 12.6593 9.74594 12.5618 9.74594 12.4805C9.74594 12.3993 9.94094 12.0255 10.1847 11.6355C11.2897 9.88055 12.1834 8.19055 12.0372 8.1418C11.9397 8.1093 11.8584 7.99555 11.8584 7.8818C11.8584 7.7843 11.6634 7.41055 11.4197 7.05305C10.7534 6.07805 10.8997 5.20055 11.7122 5.1843C11.8422 5.1843 12.0697 5.2818 12.1997 5.3793ZM15.3847 10.628C15.9209 11.5218 16.6034 12.6755 16.8959 13.1793L17.4484 14.1218H19.0409C20.5522 14.1218 20.6497 14.138 20.7797 14.4793C21.0884 15.308 20.5684 15.7468 19.3009 15.7468H18.3422L18.7647 16.348C18.9922 16.6893 19.1709 17.0305 19.1709 17.0955C19.1709 17.1768 19.3172 17.453 19.5122 17.713C19.8372 18.168 19.8372 18.2168 19.5934 18.5905C19.4147 18.8668 19.1709 18.9968 18.8784 18.9968C18.4397 18.9968 18.1959 18.688 16.7497 16.1693C16.5384 15.8118 15.7909 14.528 15.0922 13.3418C13.6947 10.9855 13.5322 10.3355 14.0847 9.39305C14.2309 9.1493 14.3772 8.9543 14.3934 8.97055C14.4097 8.9868 14.8484 9.7343 15.3847 10.628ZM8.51094 16.2505C8.73844 16.3643 8.94969 16.5268 8.98219 16.6405C9.03094 16.738 8.75469 17.323 8.39719 17.908C7.84469 18.7855 7.63344 18.9968 7.30844 18.9968C6.41469 18.9968 6.28469 18.3955 6.91844 17.2418C7.63344 15.9743 7.73094 15.9093 8.51094 16.2505Z" fill="#CADAE4"/>
</g>
<defs>
<clipPath id="clip0_380_53">
<rect width="26" height="26" fill="white"/>
</clipPath>
</defs>
</svg>
