<svg width="21" height="25" viewBox="0 0 21 25" fill="none" xmlns="http://www.w3.org/2000/svg">
<path d="M20.4375 7.78516H0.5625C0.251859 7.78516 0 7.5333 0 7.22266V5.53516C0 4.2925 1.00734 3.28516 2.25 3.28516H4.5V0.847656C4.5 0.537016 4.75186 0.285156 5.0625 0.285156H6.9375C7.24814 0.285156 7.5 0.537016 7.5 0.847656V3.28516H13.5V0.847656C13.5 0.537016 13.7519 0.285156 14.0625 0.285156H15.9375C16.2481 0.285156 16.5 0.537016 16.5 0.847656V3.28516H18.75C19.9927 3.28516 21 4.2925 21 5.53516V7.22266C21 7.5333 20.7481 7.78516 20.4375 7.78516ZM0.5625 9.28516H20.4375C20.7481 9.28516 21 9.53702 21 9.84766V22.0352C21 23.2778 19.9927 24.2852 18.75 24.2852H2.25C1.00734 24.2852 0 23.2778 0 22.0352V9.84766C0 9.53702 0.251859 9.28516 0.5625 9.28516ZM16.1857 13.7827L14.8653 12.4515C14.6466 12.231 14.2904 12.2295 14.0699 12.4483L9.09937 17.3788L6.94406 15.2061C6.7253 14.9855 6.36909 14.9841 6.14855 15.2029L4.81744 16.5234C4.59689 16.7421 4.59544 17.0983 4.81425 17.3188L8.68617 21.2221C8.90494 21.4426 9.26109 21.4441 9.48164 21.2253L16.1826 14.5781C16.4031 14.3594 16.4046 14.0032 16.1857 13.7827Z" fill="white"/>
</svg>
