<svg width="25" height="28" viewBox="0 0 25 28" fill="none" xmlns="http://www.w3.org/2000/svg">
<g clip-path="url(#clip0_380_57)">
<path d="M0.838477 0.148144C0.543164 0.364355 0.295313 0.664941 0.137109 1.00244L0 1.29248V13.5005V25.7085L0.142383 26.0091C0.300586 26.3519 0.675 26.779 0.943945 26.9214L1.12852 27.0216L4.86211 23.3249C6.91348 21.2894 9.97207 18.2466 11.6543 16.5591L14.7129 13.4952L7.95234 6.75049C4.23984 3.03799 1.16016 0.000488281 1.11797 0.000488281C1.07578 0.000488281 0.949219 0.0690429 0.838477 0.148144Z" fill="#CADAE4"/>
<path d="M9.96677 6.53906L15.8203 12.3926L17.4129 10.8C18.6521 9.56074 18.9949 9.1916 18.9422 9.14414C18.8367 9.04395 4.24509 0.685547 4.17653 0.685547C4.13962 0.685547 6.74997 3.31699 9.96677 6.53906Z" fill="#CADAE4"/>
<path d="M18.6732 11.7916L16.933 13.5002L18.6679 15.2035C19.6172 16.1369 20.4135 16.9068 20.4345 16.9174C20.5136 16.949 23.5828 15.1613 23.7937 14.9609C23.915 14.8449 24.0785 14.6076 24.1629 14.4283C24.2947 14.1383 24.3105 14.0539 24.3105 13.5265C24.3105 12.9992 24.2947 12.9148 24.1629 12.6248C23.9256 12.1133 23.6672 11.9129 22.0008 10.9478C21.1623 10.4679 20.4609 10.0724 20.4451 10.0777C20.424 10.0777 19.6277 10.8476 18.6732 11.7916Z" fill="#CADAE4"/>
<path d="M9.96677 20.4609C6.74997 23.683 4.13962 26.3145 4.17653 26.3145C4.24509 26.3145 18.8367 17.9561 18.9422 17.8559C18.9949 17.8084 18.6521 17.4393 17.4129 16.2L15.8203 14.6074L9.96677 20.4609Z" fill="#CADAE4"/>
</g>
<defs>
<clipPath id="clip0_380_57">
<rect width="25" height="28" fill="white"/>
</clipPath>
</defs>
</svg>
