<svg width="21" height="25" viewBox="0 0 21 25" fill="none" xmlns="http://www.w3.org/2000/svg">
<path d="M11.5282 0.628178C11.5998 0.423501 11.7401 0.249964 11.9253 0.137091C12.1104 0.0242185 12.329 -0.021017 12.5437 0.00908118L13.498 0.142906C13.7128 0.173211 13.9104 0.27701 14.0573 0.436635C14.2041 0.59626 14.2911 0.801846 14.3035 1.0184L14.356 1.9239C14.3717 2.19722 14.4469 2.4638 14.5766 2.70492C14.7062 2.94605 14.8871 3.15588 15.1064 3.31969L15.4516 3.57608C16.4725 4.2256 17.3071 5.12911 17.8739 6.19814C18.4406 7.26716 18.72 8.46505 18.6847 9.6745L18.5071 15.7929C18.4733 16.9311 18.9023 18.0367 19.6952 18.8546L20.0867 19.2561C20.3401 19.5172 20.5122 19.8463 20.5819 20.2033C20.6516 20.5604 20.616 20.93 20.4794 21.2672L20.4544 21.3298C20.316 21.671 20.0676 21.9562 19.7485 22.14C19.4294 22.3238 19.058 22.3956 18.6934 22.3441L15.2415 21.8588C15.082 22.8252 14.5509 23.691 13.7617 24.2711C12.9725 24.8512 11.9877 25.0997 11.0178 24.9635C10.0478 24.8274 9.16953 24.3173 8.57058 23.5422C7.97164 22.7672 7.69951 21.7887 7.81232 20.8157L1.42999 19.9177C1.06522 19.8668 0.727971 19.6953 0.47188 19.4306C0.215788 19.1659 0.055565 18.8232 0.016696 18.4569L0.0104423 18.3906C-0.0278836 18.0289 0.0397893 17.6638 0.205222 17.3398C0.370654 17.0158 0.62671 16.7469 0.942215 16.5659L1.42749 16.287C1.91681 16.0062 2.3449 15.6303 2.68646 15.1813C3.02802 14.7324 3.27612 14.2195 3.4161 13.673L4.9307 7.74217C5.23016 6.56957 5.82909 5.49488 6.66881 4.62338C7.50852 3.75187 8.56023 3.11344 9.72089 2.77063L10.1211 2.61929C10.3772 2.52244 10.609 2.3707 10.8002 2.17473C10.9914 1.97876 11.1374 1.74331 11.228 1.48491L11.5282 0.628178Z" fill="white"/>
</svg>
