<svg width="30" height="26" viewBox="0 0 30 26" fill="none" xmlns="http://www.w3.org/2000/svg">
<g clip-path="url(#clip0_380_62)">
<path d="M27.3864 0.22723C27.1339 0.353507 26.1394 0.748124 25.1766 1.11117C22.2564 2.2161 19.8413 3.1474 19.3362 3.36838C18.8627 3.57358 18.0577 3.88928 16.937 4.31546C16.6055 4.44174 15.8794 4.71008 15.3111 4.93106C14.7429 5.15205 13.6853 5.56245 12.9434 5.83079C12.2016 6.11492 11.3965 6.43061 11.1282 6.5411C10.8756 6.66738 10.2285 6.91993 9.70758 7.10935C9.18669 7.31455 8.69736 7.53554 8.60265 7.59868C8.52373 7.66182 8.33431 7.72495 8.17647 7.72495C8.01862 7.72495 7.76606 7.78809 7.60822 7.86702C7.46615 7.94594 7.02418 8.13536 6.62957 8.27742C6.23495 8.43526 5.77719 8.6089 5.60356 8.68782C5.20895 8.84567 3.75675 9.41392 2.92017 9.72961C2.5729 9.87167 2.14672 10.0296 1.97309 10.1085C1.79945 10.1716 1.40484 10.3295 1.10493 10.4557C0.347263 10.7557 0 11.1345 0 11.6554C0 12.2236 0.347263 12.5078 1.42062 12.8392C1.89416 12.9971 2.54133 13.2023 2.84124 13.3286C3.14115 13.439 4.02509 13.7232 4.81433 13.9599C5.60356 14.1967 6.51907 14.4966 6.88212 14.6229L7.52929 14.8597L8.74471 14.0862C9.40767 13.6758 10.1496 13.2023 10.3863 13.0602C10.6231 12.9024 10.923 12.7287 11.0493 12.6656C11.1756 12.6025 11.728 12.2552 12.2805 11.8764C12.8329 11.4975 13.3065 11.1976 13.3381 11.1976C13.4328 11.1976 15.8478 9.72961 15.9425 9.60333C15.9899 9.55598 16.1319 9.46127 16.2582 9.39813C16.5581 9.25607 16.9054 9.05087 18.0577 8.30899C18.5628 7.97751 19.1942 7.58289 19.4783 7.44083C19.7466 7.28298 20.3938 6.87258 20.9147 6.52532C21.4514 6.17805 21.9723 5.84658 22.0986 5.78344C22.2248 5.7203 22.5247 5.54667 22.7615 5.38882C23.6297 4.82057 24.9398 4.09448 25.0976 4.09448C25.5554 4.09448 24.9714 4.69429 21.404 7.8828C21.0726 8.18271 20.599 8.6089 20.378 8.84567C20.157 9.06665 19.2257 9.91903 18.3102 10.7399C17.3947 11.5449 16.3529 12.5078 15.9741 12.855C15.1059 13.66 14.5377 14.1651 13.0224 15.5384C12.3436 16.1382 11.586 16.817 11.3492 17.038C10.923 17.4168 10.8756 17.5904 10.6547 19.4846C10.2285 23.1308 10.3548 23.8254 11.4281 23.8254C11.8543 23.8254 12.4541 23.336 14.9797 20.8894C15.8794 20.0213 16.4161 19.7687 16.4161 20.2107C16.4161 20.2896 16.5108 20.3527 16.6371 20.3527C16.7633 20.3527 16.8896 20.4159 16.9212 20.479C16.9527 20.5579 18.1366 21.4892 19.573 22.5626C21.0094 23.6202 22.209 24.5357 22.2564 24.5988C22.509 24.8987 23.4245 25.246 23.9611 25.246C24.9556 25.246 25.2081 24.8987 25.6343 22.9572C25.7922 22.2627 26.0132 21.284 26.1394 20.7947C26.2657 20.2896 26.3604 19.7371 26.3604 19.5477C26.3604 19.3583 26.4551 18.8374 26.5814 18.3954C26.7077 17.9535 26.9129 17.0537 27.0549 16.4066C27.6705 13.4233 27.7653 12.9497 27.9389 12.0658C28.0336 11.5449 28.223 10.6452 28.3493 10.0453C28.5545 9.05087 28.6966 8.43526 29.2964 5.62559C29.4226 5.00999 29.6436 4.04712 29.7699 3.51044C30.1014 2.08982 30.0698 0.574493 29.7068 0.258799C29.3437 -0.0726794 28.0652 -0.0884642 27.3864 0.22723Z" fill="#CADAE4"/>
</g>
<defs>
<clipPath id="clip0_380_62">
<rect width="30" height="26" fill="white"/>
</clipPath>
</defs>
</svg>
