<svg width="100" height="100" viewBox="0 0 100 100" fill="none" xmlns="http://www.w3.org/2000/svg">
<path d="M28 46C29.1046 46 30 45.1046 30 44C30 42.8954 29.1046 42 28 42C26.8954 42 26 42.8954 26 44C26 45.1046 26.8954 46 28 46Z" fill="#CADAE4"/>
<path d="M37.488 40C36.252 36.504 32.918 34 29 34C24.03 34 20 38.03 20 43C20 46.12 21.588 48.87 24 50.484" stroke="#CADAE4" stroke-width="4" stroke-miterlimit="10"/>
<path d="M47 56C53.0751 56 58 51.0751 58 45C58 38.9249 53.0751 34 47 34C40.9249 34 36 38.9249 36 45C36 51.0751 40.9249 56 47 56Z" stroke="#CADAE4" stroke-width="4" stroke-miterlimit="10"/>
<path d="M50 48C51.1046 48 52 47.1046 52 46C52 44.8954 51.1046 44 50 44C48.8954 44 48 44.8954 48 46C48 47.1046 48.8954 48 50 48Z" fill="#CADAE4"/>
<path d="M26 34V32C26 29.75 28 28 28 28C28 28 33.136 8 50 8C50 8 78 8.158 78 30C78 34.034 78 38.488 76 44C76 44 75.508 45.7 74.87 48" stroke="#CADAE4" stroke-width="4" stroke-miterlimit="10" stroke-linecap="round" stroke-linejoin="round"/>
<path d="M23.072 58.9722C23.072 58.9722 21.376 60.3742 20 64.0002C19.468 65.4022 16 68.8762 16 72.0002C16 72.0002 18.876 78.0002 30 78.0002C41.124 78.0002 44 76.0002 44 76.0002" stroke="#CADAE4" stroke-width="4" stroke-miterlimit="10" stroke-linecap="round" stroke-linejoin="round"/>
<path d="M80 56V44L74 54V42L68 52" stroke="#CADAE4" stroke-width="4" stroke-miterlimit="10" stroke-linecap="round" stroke-linejoin="round"/>
<path d="M34 90V92" stroke="#CADAE4" stroke-width="4" stroke-miterlimit="10" stroke-linecap="round" stroke-linejoin="round"/>
<path d="M67.7939 62C67.7939 62 68.6899 60 71.7939 60C74.8979 60 75.9999 61.9 75.9999 65.064C75.9999 66.774 73.5819 70 69.4959 70C69.4959 70 70.1539 85.172 71.9999 92" stroke="#CADAE4" stroke-width="4" stroke-miterlimit="10" stroke-linecap="round" stroke-linejoin="round"/>
<path d="M24 76C24 76 23 81.876 28 84C28.876 85.626 30.5 90 40 90C54 90 54 78 54 78C54 78 55.152 69.546 46 64C39.606 60.124 29.396 60 29.396 60H27C24.25 60 22 57.75 22 55C22 52.25 24.25 50 27 50H37.468" stroke="#CADAE4" stroke-width="4" stroke-miterlimit="10"/>
</svg>
